<?xml version="1.0" encoding="utf-8"?>
<!-- Generator: Adobe Illustrator 16.0.0, SVG Export Plug-In . SVG Version: 6.00 Build 0)  -->
<!DOCTYPE svg PUBLIC "-//W3C//DTD SVG 1.1//EN" "http://www.w3.org/Graphics/SVG/1.1/DTD/svg11.dtd">
<svg version="1.1" id="Calque_1" xmlns="http://www.w3.org/2000/svg" xmlns:xlink="http://www.w3.org/1999/xlink" x="0px" y="0px"
	 width="40px" height="70px" viewBox="0 0 40 70" enable-background="new 0 0 40 70" xml:space="preserve">
<g>
	<path fill="#C52A29" d="M20,36.593c-6.004,0-10.872-4.867-10.872-10.872c0-6.004,4.868-10.872,10.872-10.872l0,0V5.531
		c-38.502,4.282,0,62.166,0,62.166V36.593L20,36.593z"/>
	<path fill="#CE3D4D" d="M20,5.531v9.317c6.003,0,10.873,4.868,10.873,10.872c0,6.005-4.869,10.872-10.873,10.872v31.104
		C20,67.697,58.503,9.813,20,5.531z"/>
</g>
<g>
	<path fill="#C52A29" d="M28.379,23.488l-7.85-6.944c-0.302-0.269-0.755-0.269-1.057,0l-7.85,6.944
		c-0.331,0.292-0.36,0.797-0.068,1.127c0.292,0.331,0.796,0.36,1.126,0.068L20,18.206l7.32,6.478
		c0.15,0.134,0.341,0.201,0.527,0.201c0.223,0,0.44-0.091,0.6-0.27C28.738,24.285,28.709,23.78,28.379,23.488z"/>
	<path fill="#C52A29" d="M26.652,25.653L20,19.767l-6.654,5.887c-0.595,0.527-0.501,0.966,0.173,1.045v5.68
		c0,0.47,0.384,0.854,0.854,0.854h2.912v-3.388c0-1.083,1.215-1.963,2.714-1.963s2.715,0.88,2.715,1.963v3.388h2.909
		c0.471,0,0.857-0.385,0.857-0.854v-5.68C27.154,26.619,27.248,26.181,26.652,25.653z"/>
</g>
</svg>
